HIERARCHY
ROOT hip
{
	OFFSET 0.000000 0.000000 0.000000 
	CHANNELS 6 Xposition Yposition Zposition Xrotation Zrotation Yrotation
	JOINT abdomen
	{
		OFFSET 0.000000 3.402643 0.000000 
		CHANNELS 3 Xrotation Zrotation Yrotation
		JOINT chest
		{
			OFFSET 0.000000 8.438565 -0.680529 
			CHANNELS 3 Xrotation Zrotation Yrotation
			JOINT neck
			{
				OFFSET 0.000000 10.207942 -0.272212 
				CHANNELS 3 Xrotation Zrotation Yrotation
				JOINT head
				{
					OFFSET 0.000000 3.130431 0.000000 
					CHANNELS 3 Xrotation Zrotation Yrotation
					End Site
					{
						OFFSET 0.000000 3.130435 0.000000 
					}
				}
			}
			JOINT lCollar
			{
				OFFSET 3.470700 6.669187 -0.816635 
				CHANNELS 3 Yrotation Zrotation Xrotation
				JOINT lShldr
				{
					OFFSET 3.198488 0.000000 0.000000 
					CHANNELS 3 Zrotation Yrotation Xrotation
					JOINT lForeArm
					{
						OFFSET 10.139888 0.000000 0.000000 
						CHANNELS 3 Yrotation Zrotation Xrotation
						JOINT lHand
						{
							OFFSET 8.370511 0.000000 0.000000 
							CHANNELS 3 Zrotation Yrotation Xrotation
							End Site
							{
								OFFSET 4.083176 0.000000 0.000000 
							}
						}
					}
				}
			}
			JOINT rCollar
			{
				OFFSET -3.470700 6.669187 -0.816635 
				CHANNELS 3 Yrotation Zrotation Xrotation
				JOINT rShldr
				{
					OFFSET -3.198488 0.000000 0.000000 
					CHANNELS 3 Zrotation Yrotation Xrotation
					JOINT rForeArm
					{
						OFFSET -10.139888 0.000000 0.000000 
						CHANNELS 3 Yrotation Zrotation Xrotation
						JOINT rHand
						{
							OFFSET -8.370511 0.000000 0.000000 
							CHANNELS 3 Zrotation Yrotation Xrotation
							End Site
							{
								OFFSET -4.083176 0.000000 0.000000 
							}
						}
					}
				}
			}
		}
	}
	JOINT lThigh
	{
		OFFSET 5.308129 -1.633274 1.361059 
		CHANNELS 3 Xrotation Zrotation Yrotation
		JOINT lShin
		{
			OFFSET -2.041588 -20.007561 0.000000 
			CHANNELS 3 Xrotation Zrotation Yrotation
			JOINT lFoot
			{
				OFFSET 0.000000 -19.190928 -1.224953 
				CHANNELS 3 Xrotation Yrotation Zrotation
				End Site
				{
					OFFSET 0.000000 -2.449906 4.627600 
				}
			}
		}
	}
	JOINT rThigh
	{
		OFFSET -5.308129 -1.633274 1.361059 
		CHANNELS 3 Xrotation Zrotation Yrotation
		JOINT rShin
		{
			OFFSET 2.041588 -20.007561 0.000000 
			CHANNELS 3 Xrotation Zrotation Yrotation
			JOINT rFoot
			{
				OFFSET 0.000000 -19.190928 -1.224953 
				CHANNELS 3 Xrotation Yrotation Zrotation
				End Site
				{
					OFFSET 0.000000 -2.449906 4.627600 
				}
			}
		}
	}
}
MOTION
Frames: 15
Frame Time: 0.059668
0.000000 43.281670 0.000000 0.000000 0.000000 0.000000 0.000000 0.000000 0.000000 0.000000 0.000000 0.000000 0.000000 0.000000 0.000000 0.000000 0.000000 0.000000 0.000000 0.000000 0.000000 0.000000 0.000000 0.000000 0.000000 0.000000 0.000000 0.000000 0.000000 0.000000 0.000000 0.000000 0.000000 0.000000 0.000000 0.000000 0.000000 0.000000 0.000000 0.000000 0.000000 0.000000 0.000000 0.000000 0.000000 0.000000 0.000000 0.000000 0.000000 0.000000 0.000000 0.000000 0.000000 0.000000 0.000000 0.000000 0.000000 0.000000 0.000000 0.000000 
0.000000 43.249275 0.000000 -3.346630 -3.646130 12.722400 -3.453100 5.319615 -3.119270 -1.479900 2.279835 -1.336830 14.405100 16.128300 -12.110600 14.440500 11.125100 -5.758500 2.000000 -2.000000 0.020256 -84.725700 -11.580000 -166.761993 96.846298 -0.197388 0.155246 0.048901 -0.036753 -150.164001 -2.000000 2.000000 0.020256 -103.663002 176.563995 -7.384400 -103.272003 0.185704 0.113805 -0.061696 0.047829 -154.264999 -6.712402 1.007391 0.455770 36.214939 2.873405 2.528106 -20.700224 -1.528054 -1.158091 -14.180882 5.861299 -0.149906 37.604481 -2.363439 -2.800500 -14.582427 -1.927535 -1.016643 
0.462756 43.120960 -0.251324 -3.822950 -2.806250 12.521200 -4.235349 4.825842 -2.914205 -1.815150 2.068218 -1.248945 15.002200 16.031300 -11.467700 14.463300 11.201200 -5.563180 2.000000 -2.000000 0.000000 -84.924400 -17.730600 -165.964005 105.546997 -0.175586 0.150928 0.051520 -0.046496 -153.766998 -2.000000 2.000000 0.000000 -105.068001 171.604004 -7.341910 -112.783997 0.165686 0.107292 -0.064143 0.055055 -156.990005 -6.205697 -0.259054 0.794441 36.396038 2.829923 2.560477 -20.813688 -1.976119 -1.397822 -15.056741 4.359504 -0.464499 40.421841 -2.306647 -2.938563 -14.604253 -1.502235 -0.921920 
0.910140 42.934479 -0.467165 -4.230390 -1.704330 12.586900 -3.609619 4.799116 -2.898105 -1.546980 2.056764 -1.242045 15.513300 15.423000 -10.924000 14.535500 11.006200 -5.350470 2.000000 -2.000000 0.000000 -86.287201 -24.085501 -164.865997 111.572998 -0.160989 0.146025 0.063397 -0.062735 -156.199005 -2.000000 2.000000 0.000000 -106.529999 165.324997 -7.130870 -117.617996 0.155997 0.102733 -0.064030 0.054746 -156.873001 -5.771756 -1.801705 1.016899 36.646183 2.771156 2.577403 -20.976862 -2.564657 -1.725551 -16.769403 2.298420 -1.374466 44.743748 -2.141390 -3.161437 -13.959422 -0.637126 -0.729498 
1.294695 42.692528 -0.579992 -4.814890 -0.768762 12.047200 -3.679480 4.786306 -2.598582 -1.576920 2.051274 -1.113678 16.315100 14.908100 -10.156200 14.621300 10.906900 -5.077880 2.000000 -2.000000 0.000000 -87.911598 -27.656300 -163.389008 113.779999 -0.155783 0.143849 0.063854 -0.064024 -156.686996 -2.000000 2.000000 0.000000 -107.591003 161.007004 -7.559770 -119.248001 0.152819 0.101012 -0.061238 0.046338 -153.709000 -5.370940 -3.192546 1.379036 37.387398 2.712987 2.634645 -21.284981 -2.439440 -1.748425 -18.916338 0.822283 -0.820350 49.801548 -1.910121 -3.444764 -12.441955 -1.032359 -0.787332 
1.543063 42.525616 -0.455863 -5.576610 -0.719236 12.169800 -3.333610 5.007716 -2.494478 -1.428690 2.146164 -1.069062 17.842199 15.659400 -9.196650 15.573500 11.301700 -4.607600 2.000000 -2.000000 0.000000 -89.485397 -29.537701 -161.929993 113.837997 -0.155646 0.143789 0.063891 -0.064127 -156.725998 -2.000000 2.000000 0.000000 -108.203003 157.863007 -7.552240 -119.522003 0.152291 0.100715 -0.061293 0.046522 -153.776993 -4.832865 -3.472956 1.036972 38.301624 2.695235 2.691842 -21.702768 -1.824872 -1.585410 -20.205175 0.777546 -0.210398 52.394039 -1.753056 -3.573423 -14.076984 -3.740415 -1.534962 
1.724927 42.526375 -0.091447 -5.791830 -0.961862 12.587800 -3.657150 5.053888 -2.420544 -1.567350 2.165952 -1.037376 18.524300 15.824200 -8.977170 15.847700 11.414700 -4.557860 2.000000 -2.000000 0.000000 -90.743202 -28.978100 -160.582993 114.209000 -0.154779 0.143402 0.063919 -0.064204 -156.755997 -2.000000 2.000000 0.000000 -108.301003 157.804993 -7.288430 -121.485001 0.148544 0.098508 -0.063334 0.052788 -156.130997 -4.266439 -3.326709 0.817340 38.337620 2.735303 2.684560 -21.940924 -1.772149 -1.625946 -20.517998 1.091372 1.482917 48.345291 -2.018595 -3.335418 -15.574261 -4.903347 -2.041649 
1.783310 42.669235 0.389721 -5.646290 -1.428580 13.881400 -3.038840 5.060132 -2.656969 -1.302360 2.168628 -1.138701 17.178101 15.217100 -9.996670 15.300200 10.957900 -4.945310 2.000000 -2.000000 0.000000 -91.299797 -29.610701 -159.634995 115.332001 -0.152172 0.142199 0.064133 -0.064795 -156.979996 -2.000000 2.000000 0.000000 -108.251999 157.472000 -7.664760 -124.092003 0.143688 0.095380 -0.063965 0.054566 -156.804993 -3.818757 -2.757880 0.037251 37.811375 2.801689 2.627047 -21.765409 -1.955007 -1.712040 -20.330683 1.797765 5.354211 40.271038 -2.482162 -2.866230 -13.771328 -0.560741 -0.972475 
1.667770 42.602959 0.909420 -5.842280 -1.651540 15.842700 -2.035460 5.141451 -3.035403 -0.872340 2.203479 -1.300887 16.719299 15.915600 -10.468800 15.505700 11.112800 -5.020420 2.000000 -2.000000 0.000000 -91.449699 -32.401501 -158.671005 117.305000 -0.147652 0.139962 0.065429 -0.058457 -158.289001 -2.000000 2.000000 0.000000 70.870598 23.956100 171.401001 -127.353996 0.137821 0.091161 -0.074819 0.067253 -157.917999 -3.751781 -1.961072 -0.551871 38.790928 2.813120 2.654816 -22.472906 -2.613021 -2.073875 -19.734856 2.296398 6.914830 37.020916 -2.650345 -2.659541 -7.208919 1.480936 -0.698621 
1.526234 42.515831 1.354179 -6.114940 -1.330280 17.955000 -2.263730 4.887911 -3.191888 -0.970170 2.094819 -1.367952 17.213499 16.738100 -10.471200 15.816500 11.387300 -5.028500 2.000000 -2.000000 0.000000 -92.401604 -36.127499 -156.623001 117.842003 -0.146435 0.139327 0.065882 -0.059602 -158.727997 -2.000000 2.000000 0.000000 69.347504 24.700899 170.289993 -129.854004 0.133492 0.087705 -0.075205 0.068247 -158.298996 -3.812908 -1.457535 0.367758 40.022839 2.749646 2.739932 -22.783239 -3.088717 -2.270509 -19.515867 1.654580 3.979521 38.487476 -2.586596 -2.740290 -7.611307 1.646688 -0.714896 
1.409280 42.671429 1.597943 -5.801260 -0.738387 20.338699 -3.602760 4.456361 -3.693235 -1.544040 1.909869 -1.582815 17.808800 16.829901 -10.267000 15.649400 11.442300 -5.120010 2.000000 -2.000000 0.000000 -93.389900 -38.291100 -154.610001 117.706001 -0.146744 0.139490 0.065599 -0.058890 -158.455002 -2.000000 2.000000 0.000000 68.009399 24.819799 169.557999 -129.942001 0.133343 0.087580 -0.064086 0.054900 -156.931000 -4.315007 -1.065351 4.624842 40.667118 2.667269 2.797715 -21.559696 -2.771387 -2.016793 -19.221756 1.150560 3.458459 38.783272 -2.565507 -2.757014 -7.846718 -0.881583 -1.113060 
1.432927 42.616470 1.516385 -5.361840 -0.787555 22.544600 -4.319420 4.434591 -4.401222 -1.851180 1.900539 -1.886238 16.660400 16.856600 -9.853110 14.654000 11.732400 -5.037750 2.000000 -2.000000 0.000000 -94.506302 -40.446499 -153.307007 117.510002 -0.147186 0.139721 0.065172 -0.057795 -158.035004 -2.000000 2.000000 0.000000 65.784203 26.404800 168.292007 -130.274002 0.132780 0.087106 -0.063406 0.052995 -156.209000 -5.020622 -0.924947 6.090831 41.045040 2.607499 2.847747 -22.411573 -2.844947 -2.182436 -19.915573 0.683421 2.967361 39.728359 -2.515746 -2.810613 -8.119650 -2.241078 -1.401879 
1.414885 41.947376 1.219723 -4.668000 0.223864 22.188801 -4.419240 4.832905 -4.011126 -1.893960 2.071245 -1.719054 15.680000 16.658899 -9.980360 14.331700 11.658300 -4.981980 2.000000 -2.000000 0.000000 -94.962402 -43.423801 -152.737000 118.837997 -0.144193 0.138118 0.066055 -0.060033 -158.893997 -2.000000 2.000000 0.000000 63.669498 30.119200 166.796997 -131.475006 0.130768 0.085365 -0.064171 0.055131 -157.018997 -5.816031 -1.734966 7.672148 41.622440 2.487727 2.901090 -24.788235 -3.270631 -2.479394 -23.541956 -0.966763 3.767237 45.392582 -2.255030 -3.153054 -9.002095 -0.456744 -1.162961 
1.312231 41.239803 1.141613 -4.963180 1.722040 21.969700 -3.579800 4.966742 -3.914281 -1.534200 2.128604 -1.677549 14.582200 16.496901 -9.859820 13.991000 11.622900 -4.756620 2.000000 -2.000000 0.000000 -94.001701 -44.755100 -154.229004 121.192001 -0.138983 0.135107 0.066313 -0.060666 -159.139008 -2.000000 2.000000 0.000000 64.032402 30.958099 167.229004 -133.623001 0.127261 0.082146 -0.062863 0.051417 -155.613007 -6.369357 -2.304005 9.048290 44.820812 2.294306 3.093589 -26.546188 -5.187385 -3.540314 -26.440155 -2.574159 4.644065 51.521896 -1.934386 -3.468534 -11.347072 1.036523 -0.863008 
1.371523 40.749969 1.534347 -5.701450 4.528360 22.527500 -3.060260 4.967735 -4.005344 -1.311540 2.129030 -1.716576 14.113600 16.456499 -9.428200 13.546900 11.754600 -4.601630 2.000000 -2.000000 0.000000 -94.327904 -42.403000 -154.878006 122.978996 -0.135112 0.132680 0.066015 -0.059931 -158.854996 -2.000000 2.000000 0.000000 65.359100 29.351900 169.177994 -135.087997 0.124940 0.079877 -0.061663 0.047724 -154.225998 -4.395908 -4.872378 8.676209 45.508469 2.270429 3.137494 -27.458267 -5.001093 -3.656440 -26.710691 -6.052932 5.574530 52.965855 -2.014557 -3.487677 -13.501542 0.538182 -1.075614 
